<svg height="512" viewBox="0 0 64 64" width="512" xmlns="http://www.w3.org/2000/svg" xmlns:xlink="http://www.w3.org/1999/xlink"><linearGradient id="linear-gradient" gradientUnits="userSpaceOnUse" x1="3.086" x2="66.52" y1="60.914" y2="-2.52"><stop offset="0" stop-color="#003f8a"/><stop offset=".518" stop-color="#00d7df"/><stop offset="1" stop-color="#006df0"/></linearGradient><linearGradient id="linear-gradient-2" x1="-12.608" x2="50.826" xlink:href="#linear-gradient" y1="45.219" y2="-18.214"/><linearGradient id="linear-gradient-3" x1="-13.071" x2="50.363" xlink:href="#linear-gradient" y1="44.757" y2="-18.677"/><linearGradient id="linear-gradient-4" x1=".086" x2="63.52" xlink:href="#linear-gradient" y1="57.914" y2="-5.52"/><linearGradient id="linear-gradient-5" x1="6.086" x2="69.52" xlink:href="#linear-gradient" y1="63.914" y2=".48"/><g id="Pause_button" data-name="Pause button"><path d="m32 1a31 31 0 1 0 31 31 31.036 31.036 0 0 0 -31-31zm0 60a29 29 0 1 1 29-29 29.032 29.032 0 0 1 -29 29z" fill="url(#linear-gradient)"/><path d="m32 5a26.98 26.98 0 0 0 -23.81 14.258 1 1 0 0 0 1.763.945 24.983 24.983 0 0 1 22.047-13.203 1 1 0 0 0 0-2z" fill="url(#linear-gradient-2)"/><path d="m7.9 22.175a1 1 0 0 0 -1.281.6 26.881 26.881 0 0 0 -.9 3 1 1 0 0 0 .743 1.2.965.965 0 0 0 .238.025 1 1 0 0 0 .972-.77 24.9 24.9 0 0 1 .83-2.777 1 1 0 0 0 -.602-1.278z" fill="url(#linear-gradient-3)"/><path d="m28 19h-4a1 1 0 0 0 -1 1v24a1 1 0 0 0 1 1h4a1 1 0 0 0 1-1v-24a1 1 0 0 0 -1-1zm-1 24h-2v-22h2z" fill="url(#linear-gradient-4)"/><path d="m40 19h-4a1 1 0 0 0 -1 1v24a1 1 0 0 0 1 1h4a1 1 0 0 0 1-1v-24a1 1 0 0 0 -1-1zm-1 24h-2v-22h2z" fill="url(#linear-gradient-5)"/></g></svg>